<?xml version="1.0" encoding="UTF-8"?>
<svg xmlns="http://www.w3.org/2000/svg" id="Layer_1" data-name="Layer 1" viewBox="0 0 300 300">
  <defs>
    <style>.cls-1{fill:#ffd100;}</style>
  </defs>
  <circle class="cls-1" cx="150" cy="150" r="150"></circle>
  <path d="M151.18,261.15q-32.52,0-50.09-15.48T83.51,202.85v-9.41h43.36v9.41q0,10.64,6.08,16.55t17.57,5.92q10.85,0,17.41-5.92t6.57-16.55q0-13.36-7.22-19.13-7.23-6.08-31.87-17.62-28.9-12.75-40.07-27.63-10.84-14.88-10.84-38,0-26.72,17.9-42.36t50.1-15.64q32.19,0,49.27,15.49t17.08,43.12v6.07H175.49v-5.77q0-23.07-22.67-23.08-10.51,0-16.42,5.77T130.49,99.9q0,11.85,7.55,17.92t32.19,17q29.24,12.75,39.75,27.93t10.51,39.18q0,27.63-18.23,43.42T151.18,261.15Z" transform="translate(0 0)"></path>
</svg>
