<svg id="Layer_2_copy" data-name="Layer 2 copy" xmlns="http://www.w3.org/2000/svg" viewBox="0 0 475.15 94.04"><defs><style>.cls-1{isolation:isolate;}.cls-2{fill:#fff;}.cls-3{fill:none;stroke:#f5ce00;stroke-miterlimit:10;stroke-width:8px;}</style></defs><g class="cls-1"><path class="cls-2" d="M20.34,81.05q-8.8,0-14.06-3.94T1,66a22.48,22.48,0,0,1,.56-4.79l.19-1H14.34l-.47,2.25c-.12,1.13-.18,1.78-.18,2a5.26,5.26,0,0,0,1.68,4.13A7,7,0,0,0,20.15,70a7,7,0,0,0,5.39-2.07A8.33,8.33,0,0,0,27.47,62a8.08,8.08,0,0,0-1.93-5.25,30.9,30.9,0,0,0-6.79-5.53Q8.16,44.3,8.16,34.36q0-9.36,5.53-15.09T28.5,13.55q8.63,0,13.73,3.94t5.11,11.16a22.76,22.76,0,0,1-.56,4.87H34.12l.28-1.12a10.38,10.38,0,0,0,.28-2.35,4.83,4.83,0,0,0-1.78-4,7,7,0,0,0-4.5-1.4,6.23,6.23,0,0,0-4.92,2.06,7.6,7.6,0,0,0-1.83,5.25,7.88,7.88,0,0,0,2,5.2,32.27,32.27,0,0,0,7,5.58q10.41,6.66,10.41,16.78,0,9.93-5.49,15.75T20.34,81.05Z" transform="translate(-1.03 0)"/><path class="cls-2" d="M58.59,80.11H45.18l14-65.62H77.43q7.88,0,12.42,3.94A13.3,13.3,0,0,1,94.4,29a22.26,22.26,0,0,1-.57,4.88L93,37.83q-2.07,9.66-6.84,13.31T70.87,54.71H63.93ZM70.12,25.93,66.37,43.27h5.71q3.57,0,5.25-1.5c1.13-1,2-2.81,2.54-5.44l.84-3.93a16.53,16.53,0,0,0,.19-1.88q0-4.59-5.25-4.59Z" transform="translate(-1.03 0)"/><path class="cls-2" d="M105.17,80.11H91.77l14-65.62h13.4Z" transform="translate(-1.03 0)"/><path class="cls-2" d="M127.39,80.11H115.48l14-65.62h15.84l5.07,38,8.25-38h11.9l-14,65.62H143.61l-6.19-46.68Z" transform="translate(-1.03 0)"/></g><g class="cls-1"><path class="cls-2" d="M203.2,80.1H181.73l14-65.62h18.84q8.25,0,12.66,3.33t4.4,9.61a20.1,20.1,0,0,1-.47,4.4l-.28,1.32a18.51,18.51,0,0,1-3.79,8.43,15.12,15.12,0,0,1-7.36,4.5v.28a8.68,8.68,0,0,1,5.11,3.85,13.09,13.09,0,0,1,1.83,7.12,25.33,25.33,0,0,1-.47,4.13l-.28,1.31q-2,9.27-7.27,13.31T203.2,80.1Zm-2.16-28-3.46,16.59h6.84c4.44,0,7.18-2.25,8.25-6.75l.37-1.78a12.74,12.74,0,0,0,.38-3.28,4.1,4.1,0,0,0-1.64-3.7c-1.1-.72-2.92-1.08-5.49-1.08Zm5.63-26.15-3.19,14.72H208q7.68,0,9.28-6.66l.28-1.31a12.84,12.84,0,0,0,.28-2.53c0-2.82-1.81-4.22-5.43-4.22Z" transform="translate(-1.03 0)"/><path class="cls-2" d="M266.1,80.1H230.38l14-65.62h35.72l-2.44,11.44H255.32L252,41.1h17.71l-2.43,11.44H249.6l-3.37,16.12h22.31Z" transform="translate(-1.03 0)"/><path class="cls-2" d="M298.25,80.1h-13.4l11.53-54.18H282.69l2.44-11.44h40.78l-2.44,11.44H309.78Z" transform="translate(-1.03 0)"/></g><g class="cls-1"><path class="cls-2" d="M362.2,80.09H348.79l11.53-54.18H346.63l2.44-11.44h40.78l-2.44,11.44H373.72Z" transform="translate(-1.03 0)"/><path class="cls-2" d="M418.91,80.09H383.19l14-65.62h35.71l-2.43,11.44H408.13l-3.28,15.18h17.71l-2.43,11.44H402.41L399,68.65h22.31Z" transform="translate(-1.03 0)"/><path class="cls-2" d="M440.37,80.09H427l14-65.62h18.28q7.88,0,12.42,3.94A13.27,13.27,0,0,1,476.18,29a22.85,22.85,0,0,1-.56,4.88l-.28,1.31q-1.23,5.54-3.71,8.29t-7.82,4.46v.18q6.27,1.79,6.28,9.66a32.5,32.5,0,0,1-.75,6.09l-1.69,7.69a30.15,30.15,0,0,0-.94,6.28,9.63,9.63,0,0,0,.28,2.25H454.06a16.21,16.21,0,0,1-.38-3,32.15,32.15,0,0,1,.94-6.75l1.78-8.53a25.06,25.06,0,0,0,.47-3.66,3.7,3.7,0,0,0-1.45-3.37c-1-.62-2.67-.94-5.11-.94H445.9ZM451.9,25.91l-3.56,16.5h3.75q8.34,0,9.75-6.94l.66-3a15.8,15.8,0,0,0,.18-2q0-4.59-5.25-4.59Z" transform="translate(-1.03 0)"/></g><path class="cls-3" d="M327.79,4h-134a10.21,10.21,0,0,0-10,8.08l-14,65.62a10.23,10.23,0,0,0,7.88,12.12,10.11,10.11,0,0,0,2.12.22h134a10.2,10.2,0,0,0,10-8.09l14-65.61A10.19,10.19,0,0,0,327.79,4Z" transform="translate(-1.03 0)"/></svg>